<svg xmlns="http://www.w3.org/2000/svg" width="260" height="260" viewBox="0 0 260 260">
  <g fill="none" stroke="#FFFFFF" stroke-opacity="0.05" stroke-width="1.5" stroke-linecap="round" stroke-linejoin="round">
    <!-- fish -->
    <g transform="translate(20,30) rotate(-8)">
      <path d="M2 18c10-14 32-14 42 0-10 14-32 14-42 0z" />
      <path d="M44 18l10-8v16z" />
      <circle cx="10" cy="15" r="1.4" fill="#FFFFFF" stroke="none" fill-opacity="0.05" />
      <path d="M14 22c4 2 9 2 13 0" />
    </g>

    <!-- citrus slice -->
    <g transform="translate(170,40)">
      <circle cx="18" cy="18" r="17" />
      <circle cx="18" cy="18" r="11" />
      <path d="M18 7v22M7 18h22M11 11l14 14M25 11L11 25" />
    </g>

    <!-- herb sprig -->
    <g transform="translate(70,120) rotate(15)">
      <path d="M0 40C0 22 8 4 14 0c6 4 14 22 14 40" />
      <path d="M14 6c-4 4-7 9-8 14M14 6c4 4 7 9 8 14M14 16c-4 4-6 9-7 13M14 16c4 4 6 9 7 13M14 26c-3 3-5 7-5 10M14 26c3 3 5 7 5 10" />
    </g>

    <!-- shrimp -->
    <g transform="translate(180,150) rotate(10)">
      <path d="M2 10c4-10 16-14 26-8 8 5 10 16 4 24" />
      <path d="M30 26c4 2 8 1 10-3" />
      <path d="M6 8l-4-4M10 4l-3-5M16 2l0-6" />
      <circle cx="6" cy="12" r="1.3" fill="#FFFFFF" stroke="none" fill-opacity="0.05" />
    </g>

    <!-- fork & knife -->
    <g transform="translate(40,190)">
      <path d="M2 0v14a4 4 0 008 0V0M6 14v26" />
      <path d="M22 0c-4 4-4 10 0 14 1 1 2 1 2 3v23" />
    </g>

    <!-- leaf -->
    <g transform="translate(130,210) rotate(-20)">
      <path d="M0 20C4 4 18-2 30 2 26 18 12 24 0 20z" />
      <path d="M2 18C10 12 18 8 28 4" />
    </g>
  </g>
</svg>
